<svg width="198" height="52" viewBox="0 0 198 52" fill="none" xmlns="http://www.w3.org/2000/svg">
<g clip-path="url(#clip0_151_1761)">
<path d="M9.31176 42.5425C7.37087 42.5425 5.71046 42.1386 4.31931 41.3196C2.93937 40.5118 1.86235 39.3451 1.1219 37.8417C0.370227 36.3384 0 34.5546 0 32.5127C0 30.9757 0.213161 29.5958 0.639482 28.3729C1.0658 27.15 1.67163 26.0954 2.46818 25.2091C3.26473 24.3341 4.24078 23.6609 5.39633 23.2009C6.55189 22.741 7.85329 22.5054 9.31176 22.5054C10.4224 22.5054 11.4882 22.6624 12.5092 22.9766C13.5301 23.2907 14.4164 23.7395 15.1569 24.3116C15.4485 24.5136 15.6505 24.7492 15.7402 25.0072C15.83 25.2652 15.8412 25.5121 15.7851 25.7364C15.7178 25.972 15.6056 26.1628 15.4261 26.3198C15.2466 26.4769 15.0334 26.5554 14.7754 26.5666C14.5174 26.5666 14.2369 26.4769 13.9452 26.275C13.2945 25.7813 12.5877 25.4111 11.8248 25.1755C11.0619 24.9399 10.2429 24.8277 9.36785 24.8277C7.94304 24.8277 6.74261 25.1306 5.75534 25.7252C4.76807 26.331 4.0164 27.1949 3.51154 28.328C3.00669 29.4611 2.74865 30.8523 2.74865 32.5015C2.74865 34.1507 3.00669 35.5194 3.51154 36.6749C4.0164 37.8305 4.76807 38.7056 5.75534 39.3114C6.74261 39.9172 7.94304 40.2089 9.36785 40.2089C10.2317 40.2089 11.0619 40.0855 11.8472 39.8499C12.6326 39.6143 13.3618 39.2441 14.0237 38.7392C14.3154 38.5373 14.5959 38.4475 14.8427 38.4588C15.0895 38.4812 15.3027 38.5597 15.471 38.6944C15.6393 38.829 15.7515 39.0197 15.8188 39.2441C15.8861 39.4797 15.8749 39.7153 15.8076 39.9509C15.729 40.1865 15.572 40.3997 15.3139 40.5904C14.551 41.2411 13.6535 41.7235 12.6101 42.0488C11.5668 42.3742 10.4673 42.5313 9.32298 42.5313L9.31176 42.5425Z" fill="#E95C9C"/>
<path d="M18.9489 42.4862C18.6123 42.4862 18.3543 42.4077 18.1635 42.2618C17.9728 42.116 17.8494 41.914 17.8158 41.656C17.7821 41.398 17.8382 41.1063 17.984 40.7921L25.5456 23.672C25.7139 23.2793 25.9271 22.9988 26.1851 22.8305C26.4432 22.651 26.7348 22.5725 27.049 22.5725C27.3631 22.5725 27.6436 22.6623 27.8904 22.8305C28.1372 23.01 28.3616 23.2905 28.5411 23.672L36.1027 40.7921C36.2485 41.1063 36.3159 41.398 36.2822 41.6672C36.2598 41.9365 36.1476 42.1384 35.9681 42.2731C35.7886 42.4077 35.5193 42.4862 35.194 42.4862C34.8237 42.4862 34.532 42.3852 34.3077 42.1945C34.0833 42.0038 33.8926 41.7233 33.7243 41.3531L31.761 36.7533L32.9502 37.4152H21.0917L22.2809 36.7533L20.3176 41.3531C20.1493 41.757 19.9698 42.0487 19.7679 42.2282C19.5659 42.4077 19.2967 42.4862 18.9601 42.4862H18.9489ZM26.9817 25.6689L22.6624 35.8894L22.0004 35.3061H32.0302L31.3907 35.8894L27.0378 25.6689H26.9817Z" fill="#E95C9C"/>
<path d="M41.1176 42.2843C40.7137 42.2843 40.3884 42.1609 40.164 41.9253C39.9284 41.6897 39.8162 41.3644 39.8162 40.9605V23.9525C39.8162 23.5262 39.9284 23.2009 40.1528 22.9877C40.3771 22.7745 40.6913 22.6511 41.0951 22.6511C41.499 22.6511 41.8468 22.7633 42.06 22.9877C42.2844 23.2121 42.3966 23.5374 42.3966 23.9525V40.0742H51.2035C51.5961 40.0742 51.8878 40.164 52.0785 40.3547C52.2693 40.5342 52.3702 40.8034 52.3702 41.1624C52.3702 41.5327 52.2693 41.8132 52.0785 42.0039C51.8878 42.1946 51.5961 42.2956 51.2035 42.2956H41.1176V42.2843Z" fill="#4BA8CC"/>
<path d="M56.5773 42.2843C56.1735 42.2843 55.8481 42.1609 55.6237 41.9253C55.3881 41.6897 55.2759 41.3644 55.2759 40.9605V23.9525C55.2759 23.5262 55.3881 23.2009 55.6125 22.9877C55.8369 22.7745 56.151 22.6511 56.5549 22.6511C56.9588 22.6511 57.3066 22.7633 57.5197 22.9877C57.7441 23.2121 57.8563 23.5374 57.8563 23.9525V40.0742H66.6632C67.0559 40.0742 67.3476 40.164 67.5383 40.3547C67.729 40.5342 67.83 40.8034 67.83 41.1624C67.83 41.5327 67.729 41.8132 67.5383 42.0039C67.3476 42.1946 67.0559 42.2956 66.6632 42.2956H56.5773V42.2843Z" fill="#E95C9C"/>
<path d="M41.0391 51.9777C40.9156 51.9777 40.8147 51.944 40.7361 51.8655C40.6576 51.7869 40.624 51.6748 40.624 51.5289V47.5686C40.624 47.4228 40.6576 47.3106 40.7361 47.232C40.8035 47.1535 40.9044 47.1199 41.0391 47.1199C41.1737 47.1199 41.2634 47.1535 41.3307 47.232C41.3981 47.3106 41.4317 47.4228 41.4317 47.5686V48.3876L41.3307 48.2081C41.4429 47.8491 41.6337 47.5798 41.8917 47.3891C42.1497 47.1984 42.4639 47.0974 42.8117 47.0974C43.1931 47.0974 43.496 47.1984 43.7204 47.3891C43.956 47.5798 44.1018 47.8715 44.1804 48.253H44.057C44.1692 47.894 44.3599 47.6135 44.6404 47.4115C44.9208 47.2096 45.2574 47.0974 45.6276 47.0974C45.9642 47.0974 46.2334 47.1647 46.4578 47.3106C46.671 47.4452 46.8393 47.6584 46.9402 47.9276C47.0524 48.2081 47.1085 48.5559 47.1085 48.9822V51.5177C47.1085 51.6635 47.0749 51.7757 46.9963 51.8543C46.929 51.9328 46.8281 51.9665 46.6934 51.9665C46.5588 51.9665 46.4578 51.9328 46.3793 51.8543C46.312 51.7757 46.2671 51.6635 46.2671 51.5177V49.0159C46.2671 48.6008 46.1998 48.2978 46.0652 48.1071C45.9305 47.9164 45.7062 47.8154 45.392 47.8154C45.0442 47.8154 44.775 47.9388 44.5618 48.1969C44.3599 48.4549 44.2589 48.8027 44.2589 49.2515V51.5177C44.2589 51.6635 44.2252 51.7757 44.1579 51.8543C44.0906 51.9328 43.9896 51.9665 43.855 51.9665C43.7204 51.9665 43.6194 51.9328 43.5409 51.8543C43.4624 51.7757 43.4287 51.6635 43.4287 51.5177V49.0159C43.4287 48.6008 43.3614 48.2978 43.2268 48.1071C43.0921 47.9164 42.8677 47.8154 42.5536 47.8154C42.2058 47.8154 41.9366 47.9388 41.7234 48.1969C41.5215 48.4549 41.4205 48.8027 41.4205 49.2515V51.5177C41.4205 51.8206 41.2859 51.9777 41.0054 51.9777H41.0391Z" fill="#4BA8CC"/>
<path d="M50.3396 52.0001C49.902 52.0001 49.5206 51.8991 49.1953 51.6972C48.8699 51.4953 48.6231 51.2148 48.4436 50.8446C48.2641 50.4743 48.1743 50.048 48.1743 49.5432C48.1743 49.1729 48.2192 48.8251 48.3202 48.5334C48.4211 48.2305 48.567 47.9725 48.7577 47.7593C48.9484 47.5462 49.1728 47.3779 49.4421 47.2657C49.7113 47.1535 50.003 47.0974 50.3284 47.0974C50.7659 47.0974 51.1474 47.1984 51.4727 47.4003C51.7981 47.6023 52.0449 47.8827 52.2244 48.253C52.4039 48.6232 52.4936 49.0495 52.4936 49.5432C52.4936 49.9134 52.4488 50.2612 52.3478 50.5641C52.2468 50.867 52.101 51.125 51.9102 51.3382C51.7195 51.5513 51.4951 51.7196 51.2259 51.8318C50.9566 51.944 50.6649 52.0001 50.3396 52.0001ZM50.3396 51.3045C50.6088 51.3045 50.8444 51.2372 51.0352 51.1026C51.2371 50.968 51.383 50.766 51.4951 50.508C51.5961 50.2499 51.6522 49.9246 51.6522 49.5432C51.6522 48.971 51.5288 48.5447 51.2932 48.2417C51.0576 47.9388 50.7323 47.793 50.3396 47.793C50.0816 47.793 49.846 47.8603 49.6552 47.9949C49.4533 48.1296 49.3074 48.3203 49.1953 48.5783C49.0831 48.8364 49.027 49.1617 49.027 49.5432C49.027 50.1153 49.1504 50.5416 49.386 50.8446C49.6216 51.1475 49.9469 51.2933 50.3396 51.2933V51.3045Z" fill="#4BA8CC"/>
<path d="M55.8818 51.9999C55.4779 51.9999 55.1413 51.8877 54.8496 51.6746C54.5691 51.4614 54.3672 51.1697 54.2775 50.8107L54.3784 50.6649V51.5175C54.3784 51.6633 54.3448 51.7755 54.2775 51.8541C54.2101 51.9326 54.1092 51.9663 53.9745 51.9663C53.8399 51.9663 53.7502 51.9326 53.6716 51.8541C53.6043 51.7755 53.5594 51.6633 53.5594 51.5175V45.448C53.5594 45.3022 53.5931 45.19 53.6716 45.1115C53.7389 45.0329 53.8399 44.9993 53.9745 44.9993C54.1092 44.9993 54.2101 45.0329 54.2887 45.1115C54.3672 45.19 54.4009 45.3022 54.4009 45.448V48.2528H54.2999C54.4009 47.905 54.5916 47.6245 54.8721 47.4113C55.1525 47.1982 55.5003 47.0972 55.893 47.0972C56.2857 47.0972 56.6334 47.1982 56.9251 47.3889C57.2168 47.5909 57.4524 47.8713 57.6095 48.2303C57.7666 48.6006 57.8563 49.0269 57.8563 49.5317C57.8563 50.0366 57.7778 50.4629 57.6095 50.8331C57.4412 51.2034 57.2168 51.4838 56.9251 51.6858C56.6334 51.8877 56.2857 51.9775 55.893 51.9775L55.8818 51.9999ZM55.691 51.3043C55.9491 51.3043 56.1847 51.237 56.3754 51.1024C56.5773 50.9678 56.7232 50.7658 56.8354 50.5078C56.9476 50.2498 57.0037 49.9244 57.0037 49.543C57.0037 48.9708 56.8803 48.5445 56.6447 48.2416C56.4091 47.9386 56.0837 47.7928 55.691 47.7928C55.4218 47.7928 55.1862 47.8601 54.9955 47.9947C54.7935 48.1294 54.6477 48.3201 54.5355 48.5781C54.4345 48.8362 54.3784 49.1615 54.3784 49.543C54.3784 50.1151 54.5018 50.5414 54.7374 50.8444C54.973 51.1473 55.2984 51.2931 55.691 51.2931V51.3043Z" fill="#4BA8CC"/>
<path d="M59.326 46.0876C59.1577 46.0876 59.0343 46.0427 58.9333 45.9417C58.8436 45.852 58.7875 45.7286 58.7875 45.5715C58.7875 45.4032 58.8324 45.2798 58.9333 45.19C59.0231 45.1003 59.1577 45.0554 59.326 45.0554C59.5055 45.0554 59.6289 45.1003 59.7187 45.19C59.8084 45.2798 59.8533 45.4032 59.8533 45.5715C59.8533 45.7286 59.8084 45.852 59.7187 45.9417C59.6289 46.0315 59.4943 46.0876 59.326 46.0876ZM59.326 51.9551C59.2026 51.9551 59.1016 51.9102 59.0231 51.8317C58.9558 51.7532 58.9109 51.6297 58.9109 51.4839V47.6133C58.9109 47.4563 58.9446 47.3441 59.0231 47.2543C59.1016 47.1646 59.1914 47.1309 59.326 47.1309C59.4606 47.1309 59.5616 47.1758 59.6401 47.2543C59.7187 47.3329 59.7523 47.4563 59.7523 47.6133V51.4839C59.7523 51.6297 59.7187 51.7532 59.6513 51.8317C59.584 51.9102 59.4718 51.9551 59.3372 51.9551H59.326Z" fill="#4BA8CC"/>
<path d="M62.4673 51.9999C62.0073 51.9999 61.6708 51.8541 61.4239 51.5736C61.1883 51.2819 61.0649 50.8668 61.0649 50.3283V45.4593C61.0649 45.3134 61.0986 45.2012 61.1771 45.1227C61.2444 45.0442 61.3454 45.0105 61.48 45.0105C61.6147 45.0105 61.7156 45.0442 61.7942 45.1227C61.8727 45.2012 61.9064 45.3134 61.9064 45.4593V50.261C61.9064 50.5976 61.9737 50.8444 62.0971 51.0127C62.2317 51.1809 62.4112 51.2595 62.658 51.2595C62.7141 51.2595 62.759 51.2595 62.8039 51.2595C62.8488 51.2595 62.8936 51.2595 62.9273 51.2483C62.9946 51.2483 63.0395 51.2595 63.0731 51.3044C63.1068 51.3492 63.118 51.439 63.118 51.5736C63.118 51.697 63.0956 51.7868 63.0395 51.8541C62.9834 51.9214 62.9049 51.9663 62.7927 51.9887C62.7366 51.9887 62.6805 51.9999 62.6244 51.9999C62.5683 51.9999 62.5122 51.9999 62.4561 51.9999H62.4673Z" fill="#4BA8CC"/>
<path d="M65.8218 52.0001C65.3394 52.0001 64.9243 51.8991 64.5877 51.7084C64.2399 51.5065 63.9819 51.226 63.7912 50.867C63.6004 50.4968 63.5107 50.0705 63.5107 49.5768C63.5107 49.0832 63.6004 48.6569 63.7912 48.2866C63.9819 47.9164 64.2287 47.6359 64.554 47.4228C64.8794 47.2208 65.2496 47.1086 65.6759 47.1086C65.9789 47.1086 66.2369 47.1647 66.4837 47.2657C66.7193 47.3667 66.9325 47.5237 67.1008 47.7257C67.269 47.9276 67.4037 48.1744 67.4934 48.4549C67.5832 48.7466 67.628 49.072 67.628 49.431C67.628 49.5319 67.5944 49.6105 67.5383 49.6666C67.4822 49.7227 67.3924 49.7451 67.2915 49.7451H64.1726V49.1842H67.0783L66.9213 49.3188C66.9213 48.9822 66.8764 48.7017 66.7754 48.4549C66.6857 48.2193 66.5398 48.0398 66.3603 47.9164C66.1808 47.793 65.9564 47.7369 65.6872 47.7369C65.3955 47.7369 65.1487 47.8042 64.9355 47.9501C64.7336 48.0959 64.5653 48.2979 64.4643 48.5559C64.3521 48.8139 64.296 49.1168 64.296 49.4646V49.5207C64.296 50.1041 64.4306 50.5416 64.6887 50.8446C64.9467 51.1475 65.3282 51.2933 65.8218 51.2933C66.0125 51.2933 66.2145 51.2709 66.4164 51.2148C66.6183 51.1587 66.8203 51.0689 66.9998 50.9343C67.0895 50.8782 67.1793 50.8446 67.2466 50.8558C67.3251 50.8558 67.3812 50.8894 67.4373 50.9343C67.4822 50.9792 67.5159 51.0465 67.5271 51.1138C67.5383 51.1811 67.5271 51.2597 67.5046 51.327C67.471 51.4055 67.4149 51.4728 67.3364 51.5289C67.1344 51.6748 66.8988 51.787 66.6183 51.8767C66.3379 51.9552 66.0798 52.0001 65.8218 52.0001Z" fill="#4BA8CC"/>
<path d="M41.2186 2.93937C40.7249 2.93937 40.3323 2.80475 40.0406 2.53549C39.7489 2.26624 39.6142 1.90723 39.6142 1.46969C39.6142 0.987271 39.7601 0.628263 40.0406 0.370227C40.3323 0.123409 40.7249 0 41.2186 0C41.7571 0 42.161 0.123409 42.419 0.370227C42.6882 0.617044 42.8229 0.987271 42.8229 1.46969C42.8229 1.91845 42.6882 2.26624 42.419 2.53549C42.1497 2.80475 41.7459 2.93937 41.2186 2.93937ZM41.2186 19.7005C40.8259 19.7005 40.523 19.5771 40.2986 19.3415C40.0742 19.1059 39.962 18.7694 39.962 18.343V7.29234C39.962 6.84358 40.0742 6.50701 40.2986 6.28263C40.523 6.04703 40.8259 5.93484 41.2186 5.93484C41.6112 5.93484 41.9366 6.04703 42.161 6.28263C42.3853 6.51823 42.4975 6.8548 42.4975 7.29234V18.343C42.4975 18.7694 42.3965 19.1059 42.1834 19.3415C41.9702 19.5771 41.6561 19.7005 41.2298 19.7005H41.2186Z" fill="#4BA8CC"/>
<path d="M45.3135 10.8936C45.6976 10.8936 46.0091 10.5822 46.0091 10.198C46.0091 9.81386 45.6976 9.50244 45.3135 9.50244C44.9293 9.50244 44.6179 9.81386 44.6179 10.198C44.6179 10.5822 44.9293 10.8936 45.3135 10.8936Z" fill="#4BA8CC"/>
<path d="M54.6701 10.1981C54.6701 5.28423 50.5191 1.0098 45.1452 1.02102" stroke="#4BA8CC" stroke-miterlimit="10" stroke-linecap="round"/>
<path d="M51.5512 10.1308C51.5512 7.18024 49.2962 4.13989 45.1452 4.13989" stroke="#4BA8CC" stroke-miterlimit="10" stroke-linecap="round"/>
<path d="M48.4324 10.086C48.4324 8.54896 46.8729 7.24756 45.1452 7.24756" stroke="#4BA8CC" stroke-miterlimit="10" stroke-linecap="round"/>
<path d="M83.3683 31.6711C83.3683 37.7518 81.0123 40.579 77.669 40.579C74.3258 40.579 71.9474 37.7518 71.9474 31.6711C71.9474 25.5904 74.3034 22.7632 77.669 22.7632C81.0347 22.7632 83.3683 25.5904 83.3683 31.6711ZM81.1469 31.6711C81.1469 26.8245 79.6436 24.8051 77.669 24.8051C75.6945 24.8051 74.1687 26.8245 74.1687 31.6711C74.1687 36.5177 75.6721 38.5371 77.669 38.5371C79.666 38.5371 81.1469 36.5401 81.1469 31.6711ZM91.3786 32.2096H88.6861V41.4765H86.4647V22.3145H88.6861V30.078H91.3786V32.2096Z" fill="#E95C9C"/>
<path d="M93.7346 31.6711C93.7346 25.5904 96.1355 22.7632 99.5461 22.7632C102.957 22.7632 105.335 25.5904 105.335 31.6711C105.335 37.7518 102.934 40.579 99.5461 40.579C96.1579 40.579 93.7346 37.7518 93.7346 31.6711ZM103.114 31.6711C103.114 26.8245 101.543 24.8051 99.5461 24.8051C97.5491 24.8051 95.956 26.8245 95.956 31.6711C95.956 36.5177 97.5042 38.5371 99.5461 38.5371C101.588 38.5371 103.114 36.5401 103.114 31.6711ZM108.589 22.3145H110.832V41.4765H108.589V22.3145Z" fill="#E95C9C"/>
<path d="M133.652 30.4596V32.1649H114.512V30.4596H121.76V28.687H124.003V30.4596H133.652ZM118.013 39.6143H132.665V41.2523H115.836V36.6525H130.151V35.2613H115.791V33.6234H132.328V38.2232H118.013V39.6143ZM130.039 27.7671H115.836V26.0842H130.039V24.177H115.836V22.4941H132.261V29.4275H130.039V27.7671Z" fill="#E95C9C"/>
<path d="M155.237 38.47V40.5568H136.098V38.47H144.512V33.8702H137.354V23.0103H153.958V33.8702H146.778V38.47H155.237ZM139.575 31.8059H151.737V25.097H139.575V31.8059Z" fill="#E95C9C"/>
<path d="M167.039 22.8754H169.238V40.3321H158.58V22.8754H160.779V29.4722H167.039V22.8754ZM167.039 38.2903V31.514H160.779V38.2903H167.039ZM177.72 32.2096H175.027V41.4765H172.806V22.3145H175.027V30.078H177.72V32.2096Z" fill="#E95C9C"/>
<path d="M179.627 26.9816C179.627 24.3787 182.028 22.5164 185.573 22.5164C189.118 22.5164 191.497 24.3787 191.497 26.9816C191.497 29.5844 189.118 31.4467 185.573 31.4467C182.028 31.4467 179.627 29.5844 179.627 26.9816ZM181.153 36.1587H194.952V34.4983H181.108V32.7481H197.151V37.8191H183.352V39.4795H197.622V41.2297H181.153V36.1587ZM189.298 26.9816C189.298 25.366 187.772 24.3114 185.573 24.3114C183.374 24.3114 181.826 25.366 181.826 26.9816C181.826 28.5971 183.374 29.6517 185.573 29.6517C187.772 29.6517 189.298 28.5971 189.298 26.9816ZM194.93 22.3145H197.151V31.6935H194.93V22.3145Z" fill="#E95C9C"/>
</g>
<defs>
<clipPath id="clip0_151_1761">
<rect width="197.622" height="52" fill="white"/>
</clipPath>
</defs>
</svg>
